<svg xmlns="http://www.w3.org/2000/svg" width="730" height="605" viewBox="0 0 730 605" font-family="sans-serif" font-size="11">
<rect x="40.0" y="40.0" width="650.0" height="525.0" fill="#fafafa" stroke="#bbb"/>
<line x1="60.0" y1="545.0" x2="60.0" y2="60.0" stroke="#cdd" stroke-width="6"/>
<line x1="670.0" y1="545.0" x2="670.0" y2="60.0" stroke="#cdd" stroke-width="6"/>
<line x1="60.0" y1="302.5" x2="670.0" y2="302.5" stroke="#cdd" stroke-width="6"/>
<path d="M60.0,545.0 L670.0,520.0 L670.0,298.5 L355.0,302.5 L60.0,298.5 L60.0,545.0" fill="none" stroke="#1565c0" stroke-width="2"/>
<path d="M670.0,545.0 L60.0,520.0 L60.0,306.5 L375.0,302.5 L670.0,306.5 L670.0,545.0" fill="none" stroke="#c62828" stroke-width="2"/>
<rect x="351.0" y="292.5" width="28" height="20" fill="#fff3" stroke="#333"/><text x="353.0" y="326.5">carriage</text>
<circle cx="60.0" cy="545.0" r="7" fill="#333"/><text x="66.0" y="539.0">M_A</text>
<circle cx="670.0" cy="545.0" r="7" fill="#333"/><text x="676.0" y="539.0">M_B</text>
<circle cx="60.0" cy="520.0" r="4" fill="#888"/><text x="66.0" y="514.0">BL</text>
<circle cx="670.0" cy="520.0" r="4" fill="#888"/><text x="676.0" y="514.0">BR</text>
<circle cx="60.0" cy="298.5" r="4" fill="#888"/><text x="66.0" y="292.5">GL_a</text>
<circle cx="60.0" cy="306.5" r="4" fill="#888"/><text x="66.0" y="300.5">GL_b</text>
<circle cx="670.0" cy="298.5" r="4" fill="#888"/><text x="676.0" y="292.5">GR_a</text>
<circle cx="670.0" cy="306.5" r="4" fill="#888"/><text x="676.0" y="300.5">GR_b</text>
<circle cx="357.5" cy="532.5" r="4" fill="#888"/><text x="363.5" y="526.5">CX1</text>
<circle cx="372.5" cy="540.0" r="4" fill="#888"/><text x="378.5" y="534.0">CX2</text>
<text x="40" y="593" fill="#666">single-plane CoreXY, motors bottom, top edge free for counterbalance — verify strands vs a reference build</text>
</svg>